<?xml version="1.0" encoding="UTF-8"?>
<svg id="Layer_2" data-name="Layer 2" xmlns="http://www.w3.org/2000/svg" xmlns:xlink="http://www.w3.org/1999/xlink" viewBox="0 0 601.96 166.86">
  <defs>
    <style>
      .cls-1 {
        fill: url(#linear-gradient-2);
      }

      .cls-2 {
        fill: url(#linear-gradient);
      }

      .cls-3 {
        fill: #fff;
      }
    </style>
    <linearGradient id="linear-gradient" x1="90.87" y1="93.17" x2="0" y2="93.17" gradientUnits="userSpaceOnUse">
      <stop offset="0" stop-color="#fff"/>
      <stop offset=".24" stop-color="#fff"/>
      <stop offset=".34" stop-color="#fff" stop-opacity=".89"/>
      <stop offset=".56" stop-color="#fff" stop-opacity=".61"/>
      <stop offset=".88" stop-color="#fff" stop-opacity=".17"/>
      <stop offset="1" stop-color="#fff" stop-opacity="0"/>
    </linearGradient>
    <linearGradient id="linear-gradient-2" x1="0" y1="45.44" x2="90.87" y2="45.44" gradientUnits="userSpaceOnUse">
      <stop offset="0" stop-color="#ffe6ad"/>
      <stop offset=".3" stop-color="#ffe6ad"/>
      <stop offset=".44" stop-color="#ffe6ad" stop-opacity=".78"/>
      <stop offset=".83" stop-color="#ffe6ad" stop-opacity=".22"/>
      <stop offset="1" stop-color="#ffe6ad" stop-opacity="0"/>
    </linearGradient>
  </defs>
  <g id="Layer_1-2" data-name="Layer 1">
    <g>
      <g>
        <g>
          <path class="cls-3" d="M187.02,12.11l-3.03,9.93h-23.04c-8.03,0-16.03,6.04-16.03,16.08s9.14,16.08,15.02,16.08h54.82c4.35,0,10.43,0,10.43-5.55s-5.35-5.44-10.71-5.44c-6.07,0-21.32,0-21.32-15.21s14.85-15.89,20.37-15.89h27.37l-2.89,9.93h-26.67c-3.15,0-8.24,0-8.24,5.56s5.55,5.55,8.24,5.55h5.91c3,0,17.88,0,17.88,15.5s-16.18,15.49-20,15.49h-53.83c-13.68,0-26.32-9.94-26.32-26.02s12.96-26.02,25.67-26.02h26.36Z"/>
          <path class="cls-3" d="M241.37,61.48h13.33s6.54-26.8,8.78-36.39c.5-2.15,2.45-4.37,5.43-4.37,4.65,0,4.71,2.43,11.04,22.69,4.99,15.98,8.48,22.24,20.89,22.24,8.22,0,13.92-5.27,13.92-14.02V10.78h-9.94v39.88c0,4.2-1.99,5.99-5.31,5.99-4.68,0-6.24-2.76-11.23-19.24-5.42-17.9-7.58-26.63-19.37-26.63s-15.18,12.37-15.18,12.37l-12.37,38.33Z"/>
          <path class="cls-3" d="M321.75,61.48h12.93s4.63-20.16,6.74-27.87c2.32-8.5,2.6-12.89,7.74-12.89,5.5,0,6.35,5.48,7.99,12.84,1.73,7.79,6.31,27.92,6.31,27.92h12.86s-8.81-27.54-11.91-37.95c-1.98-6.67-4.86-12.75-15.25-12.75s-13.24,6.03-15.25,12.75c-3.51,11.74-12.16,37.95-12.16,37.95Z"/>
        </g>
        <g>
          <path class="cls-3" d="M153.56,119.15l.17,6.9h-4.18l.17-6.9v-8.58h-10.65v2.97h-4.09l.17-6.9v-6.9l-.17-5.17.17-.17,5.6.17h8.97v-5c0-.95,0-1.25-.39-3.15,4.96.26,5.6.39,5.6,1.21,0,.43-.39.65-1.38.91v6.04h9.61l5.6-.17.22.17-.17,5.17v6.77l.17,6.64h-4.14v-2.59h-11.29v8.58ZM149.73,98.03h-10.65v9.1h10.65v-9.1ZM164.86,107.12v-9.1h-11.29v9.1h11.29Z"/>
          <path class="cls-3" d="M199.12,111.6l-5.65.13v-3.28l5.65.13h3.06v-.82c0-.95-.13-2.11-.39-3.15,4.7.39,5.39.52,5.39,1.34,0,.43-.39.69-1.38.95v1.68h3.32l5.22-.13v3.28l-5.22-.13h-3.32v3.41l1.6-2.2c2.03.99,4.22,2.33,6.03,3.71l-2.11,2.93c-1.85-1.72-3.53-2.84-5.52-3.97v4.66l.17,6.04h-3.97l.3-11.12c-1.9,2.93-4.44,5.39-7.46,7.72-.56-1.08-1.25-1.72-2.37-2.72,3.36-2.33,6.12-4.83,8.41-8.45h-1.77ZM205.24,100.87c.47-1.51.86-3.02,1.08-4.48.13-.95.17-1.34.22-2.24,3.92.86,4.61,1.12,4.61,1.68,0,.52-.3.65-1.25.82-.3,1.34-.73,2.8-1.21,4.22h.34l5.6-.13v3.32l-5.6-.13h-10.04l-5.65.13v-3.32l5.65.13h6.25ZM202.31,89.45c0-.95-.13-1.9-.39-3.15,4.78.26,5.39.39,5.39,1.21,0,.43-.39.65-1.38.91v2.54h2.37l5.6-.13v3.32l-5.6-.13h-8.19l-5.65.13v-3.32l5.65.13h2.2v-1.51ZM200.67,94.28c.78,1.9,1.38,3.49,1.77,5.39l-3.32,1.16c-.35-1.9-.86-3.49-1.64-5.43l3.19-1.12ZM227.87,100.18l5.65-.17v3.62l-4.74-.13v15.65l.17,6.94h-4.09l.17-6.94v-15.69h-4.96v5.09c0,8.66-2.07,13.62-7.24,17.2-.69-.95-1.64-1.72-2.8-2.59,4.44-2.72,6.34-6.59,6.34-15.22v-13.28c0-2.72-.04-3.19-.39-5.56,1.16.3,2.41.69,3.53,1.16,2.89-.6,5.09-1.25,7.28-1.98,1.16-.39,1.72-.6,2.8-1.16,2.67,2.37,2.89,2.63,2.89,3.32,0,.43-.22.6-.91.6-.3,0-.73-.04-1.25-.09-3.92,1.08-6.98,1.85-10.26,2.46v6.77h7.8Z"/>
          <path class="cls-3" d="M275.84,94.36c0,1.38-.04,2.67-.17,3.92,2.84,11.81,8.28,18.06,19.23,23.19-1.12.99-2.11,2.2-2.89,3.49-9.35-4.83-15.04-11.12-17.72-19.83-.82,2.97-2.03,5.78-3.49,8.02-3.49,5.34-7.59,9.18-13.41,12.03-.82-1.16-1.64-2.2-2.89-3.15,5.6-2.46,9.22-5.47,12.89-10.91,2.97-4.48,4.35-9.79,4.35-16.85v-2.16c0-1.68-.09-2.41-.39-4.4,5.13.21,5.86.34,5.86,1.12,0,.47-.34.73-1.38,1.04v4.48Z"/>
          <path class="cls-3" d="M333.37,95.05h-6.9l-6.9.17v-4.05l6.9.17h18.28l6.94-.17v4.05l-6.94-.17h-7.24v22.46h10.95l6.94-.17v4.1l-6.94-.17h-25.65l-6.94.17v-4.1l6.94.17h10.56v-22.46Z"/>
          <path class="cls-3" d="M382.29,92.98c-.82.99-1.72,1.98-2.8,2.97-.69-.91-1.64-1.77-2.63-2.37,1.81-1.47,3.62-3.71,5-6.12.3-.52.52-1.12.65-1.68,3.79,1.25,4.27,1.6,4.27,2.16,0,.39-.34.6-1.59.65-.26.47-.52.95-.82,1.42h7.11l5.17-.17v3.32l-5.17-.17h-1.9v3.49h2.37l6.03-.17v3.36l-6.03-.17h-2.54c-.13,1.12-.47,2.2-.95,3.23l2.03-1.9c2.24,1.04,4.1,2.24,6.55,4.05l-2.76,2.67c-2.03-1.85-3.79-3.06-6.12-4.27-1.68,3.02-4.87,5-9.61,6.34-.56-1.25-1.29-1.98-2.24-2.89,6.03-1.55,8.71-3.71,9.4-7.24h-2.93l-6.03.17v-3.36l6.03.17h3.1v-3.49h-3.58ZM387.72,124.19v1.94h-3.97l.17-6.85v-5.52l-.17-5.43.17-.17,5.43.17h15l5.43-.17.17.17-.17,5.43v5.52l.17,6.85h-4.01v-1.94h-18.23ZM405.95,111.52h-18.23v3.1h18.23v-3.1ZM405.95,117.77h-18.23v3.23h18.23v-3.23ZM399.14,106.43l-.17-.13.17-4.83v-6.85l-.17-4.78.17-.17,5,.22h6.08l4.91-.22.17.17-.17,4.78v6.85l.17,4.78-.17.17-5-.17h-6.04l-4.96.17ZM411.34,93.11h-8.45v9.92h8.45v-9.92Z"/>
          <path class="cls-3" d="M456.16,100.22c-.39-.73-.73-1.46-1.08-2.11-4.79.47-9.27.78-14.57,1.12-.17.73-.47,1.08-.82,1.08-.82-.04-.99-.73-1.85-4.79,1.12.09,1.55.09,3.23.09h1.29c1.25-2.8,2.07-5.3,2.54-7.03.26-.9.43-1.64.52-2.63,4.48,1.16,5.17,1.59,5.17,2.11,0,.56-.43.69-1.59.73-.82,2.2-1.72,4.4-2.76,6.72,2.33-.04,4.7-.22,7.03-.39-.78-1.16-1.68-2.29-2.72-3.49l3.02-1.64c2.2,2.59,3.92,4.87,5.86,8.41l-3.28,1.81ZM444.48,116.3v9.66h-3.79l.17-6.9v-12.8l-.13-5.09.22-.17,5.04.13h5.13l5.04-.13.17.17-.09,5.09v10.47l.13,4.79c0,3.32-1.03,4.14-5,4.14h-1.59c-.39-1.42-.91-2.71-1.55-3.92,1.08.17,2.46.21,3.28.21s1.03-.21,1.03-.86v-4.78h-8.06ZM452.54,104.28h-8.06v2.89h8.06v-2.89ZM452.54,110.23h-8.06v3.02h8.06v-3.02ZM463.96,93.15c2.93-.95,5-1.77,7.03-2.89.69-.39.86-.52,1.81-1.42,2.89,2.24,3.41,2.54,3.41,3.15,0,.52-.39.73-1.72.6-3.66,1.59-6.81,2.76-10.52,3.84v4.14c0,1.03.13,1.16,4.57,1.16,4.18,0,4.83-.21,5.3-.95.3-.47.47-1.34.47-3.1,1.29.99,2.46,1.51,3.62,1.85-.39,4.79-1.08,5.6-9.27,5.65-7.46.04-8.45-.52-8.45-3.49v-12.11c0-.95,0-1.25-.39-3.15,4.83.43,5.52.56,5.52,1.38,0,.43-.39.65-1.38.91v4.44ZM463.96,112.94c2.93-.95,5.26-1.85,7.29-2.97.69-.39.86-.52,1.81-1.42,2.89,2.24,3.41,2.54,3.41,3.15,0,.52-.39.73-1.72.6-3.66,1.59-6.98,2.8-10.78,3.88v4.79c0,1.03.13,1.16,4.57,1.16,4.18,0,4.91-.43,5.35-1.21.26-.47.43-2.03.43-4.05,1.29.99,2.46,1.51,3.62,1.85-.43,5.86-1.08,6.81-9.27,6.85-7.46.04-8.45-.52-8.45-3.49v-12.76c0-.95,0-1.25-.39-3.15,4.83.43,5.52.56,5.52,1.38,0,.43-.39.65-1.38.91v4.48Z"/>
          <path class="cls-3" d="M499.56,96.22h12.89v3.79h-12.89v-3.79ZM504.13,86.09h3.92v39.95h-3.92v-39.95ZM520.85,86.39h3.88v8.4c0,2.39-.12,4.92-.34,7.61-.23,2.69-.73,5.42-1.51,8.19-.78,2.77-1.96,5.48-3.56,8.12-1.59,2.64-3.77,5.11-6.53,7.41-.2-.29-.49-.61-.86-.97-.37-.36-.76-.7-1.16-1.03-.4-.33-.76-.58-1.08-.75,2.61-2.13,4.67-4.4,6.16-6.81,1.49-2.41,2.6-4.89,3.32-7.43.72-2.54,1.18-5.04,1.38-7.48.2-2.44.3-4.74.3-6.9v-8.36ZM513.83,102l3.62.69c-.43,2.27-1.04,4.47-1.83,6.59-.79,2.13-1.69,3.92-2.69,5.39-.2-.2-.49-.43-.86-.69-.37-.26-.76-.52-1.16-.78-.4-.26-.75-.46-1.03-.6.95-1.32,1.76-2.92,2.44-4.8.67-1.88,1.19-3.81,1.53-5.8ZM513.7,94.19h17.8v3.97h-17.8v-3.97ZM529.86,94.19h3.92c0,.49,0,.88-.02,1.19-.02.3-.02.55-.02.75-.12,4.74-.23,8.75-.35,12.03s-.25,5.96-.41,8.06c-.16,2.1-.36,3.72-.6,4.87-.24,1.15-.55,1.97-.93,2.46-.46.69-.95,1.16-1.47,1.42-.52.26-1.14.45-1.85.56-.69.09-1.57.13-2.63.13s-2.17-.03-3.32-.09c-.03-.58-.15-1.24-.37-1.98-.22-.75-.5-1.39-.84-1.94,1.18.09,2.25.14,3.23.17.98.03,1.68.04,2.11.04.37,0,.69-.05.95-.15.26-.1.49-.28.69-.54.29-.34.53-1.06.73-2.13.2-1.08.37-2.63.52-4.65.14-2.03.27-4.62.37-7.78.1-3.16.19-7,.28-11.51v-.91ZM533.44,102.77l3.36-.69c.4,1.32.81,2.74,1.23,4.27.42,1.52.78,2.99,1.1,4.4.32,1.41.55,2.63.69,3.66l-3.62.91c-.12-1.03-.32-2.28-.6-3.73-.29-1.45-.62-2.94-.99-4.48-.37-1.54-.76-2.98-1.16-4.33Z"/>
          <path class="cls-3" d="M591.15,104.53l-6.47-.17h-8.53l-6.51.17v-3.62c-1.94,1.42-4.14,2.8-6.64,4.27-.86-1.21-2.03-2.29-3.19-3.19,8.62-4.4,13.36-8.41,17.07-13.79.6-.91.99-1.68,1.34-2.76,4.4.82,5.09,1.04,5.09,1.81,0,.34-.3.6-.99.69,5.43,6.9,10.47,9.79,18.92,12.8-1.03.99-2.2,2.37-3.06,3.84-2.63-1.21-4.96-2.37-7.03-3.66v3.62ZM577.88,112.64c-1.16,2.54-2.41,5.09-3.75,7.54,5.09-.26,10.17-.69,15.26-1.08-1.21-1.25-2.5-2.41-3.88-3.62l3.02-2.16c4.22,3.49,7.07,6.68,10.3,10.39l-3.41,2.46c-1.12-1.47-2.16-2.76-3.19-3.97-10.6,1.12-18.1,1.77-26.47,2.37-.26.91-.6,1.38-.99,1.38-.82,0-.99-.3-2.54-5.47,2.33.09,2.63.09,3.97.04.95-.04,2.16-.09,3.49-.13,1.34-2.54,2.54-5.13,3.62-7.76h-5.6l-6.94.17v-3.97l6.94.17h25.48l6.94-.17v3.97l-6.94-.17h-15.3ZM590.68,100.61c-4.14-2.54-7.67-5.95-10.69-9.79-2.8,3.75-6.16,7.03-9.96,9.79l6.12.17h8.53l5.99-.17Z"/>
        </g>
      </g>
      <g>
        <circle class="cls-2" cx="45.44" cy="93.17" r="45.44"/>
        <circle class="cls-1" cx="45.44" cy="45.44" r="45.44"/>
      </g>
    </g>
  </g>
</svg>